# xmcd
#
# Track frame offsets:
#	150
#	23244
#	43176
#	55260
#	66976
#	76337
#	94025
#	115491
#	131558
#	141863
#
# Disc length: 2174 seconds
#
# Revision: 2
# Processed by: cddbd v1.5.2PL0 Copyright (c) Steve Scherf et al.
# Submitted via: audiograbber 1.83.01
#
DISCID=8d087c0a
DTITLE=Digger Barnes - Time has come
DYEAR=2009
DGENRE=Country
TTITLE0=Everybody run
TTITLE1=Jim
TTITLE2=Song for a sleepwalker
TTITLE3=Waiting for the snakes
TTITLE4=4pm
TTITLE5=Old brown shoes
TTITLE6=The river
TTITLE7=Slacker song
TTITLE8=Time has come
TTITLE9=One trick pony
EXTD=
EXTT0=
EXTT1=
EXTT2=
EXTT3=
EXTT4=
EXTT5=
EXTT6=
EXTT7=
EXTT8=
EXTT9=
PLAYORDER=
